<svg width="21" height="22" viewBox="0 0 21 22" fill="none" xmlns="http://www.w3.org/2000/svg">
<path d="M12.1068 19.5114H20.4727L17.558 16.0955V9.76477C17.5582 8.21128 17.0267 6.70451 16.0517 5.49507C15.0767 4.28563 13.717 3.44643 12.1989 3.11704V2.4625C12.1989 2.07462 12.0448 1.70263 11.7705 1.42836C11.4962 1.15408 11.1242 1 10.7364 1C10.3485 1 9.97649 1.15408 9.70222 1.42836C9.42795 1.70263 9.27386 2.07462 9.27386 2.4625V3.11704C7.75569 3.44643 6.39604 4.28563 5.42105 5.49507C4.44605 6.70451 3.91449 8.21128 3.91477 9.76477V16.0955L1 19.5114H12.1068Z" stroke="#585866" stroke-width="0.872727" stroke-linecap="round" stroke-linejoin="round"/>
<path d="M12.1989 19.992C12.1989 20.3799 12.0448 20.7519 11.7705 21.0262C11.4963 21.3005 11.1243 21.4545 10.7364 21.4545C10.3485 21.4545 9.97652 21.3005 9.70225 21.0262C9.42798 20.7519 9.27389 20.3799 9.27389 19.992C9.27281 19.8273 9.30408 19.664 9.36594 19.5114H12.1068C12.1687 19.664 12.2 19.8273 12.1989 19.992Z" fill="#585866"/>
</svg>
