<svg width="26" height="19" viewBox="0 0 26 19" fill="none" xmlns="http://www.w3.org/2000/svg">
<path d="M11.5 19C12.3284 19 13 18.3284 13 17.5C13 16.6716 12.3284 16 11.5 16C10.6716 16 10 16.6716 10 17.5C10 18.3284 10.6716 19 11.5 19Z" fill="#585866"/>
<path d="M18.5 19C19.3284 19 20 18.3284 20 17.5C20 16.6716 19.3284 16 18.5 16C17.6716 16 17 16.6716 17 17.5C17 18.3284 17.6716 19 18.5 19Z" fill="#585866"/>
<path d="M1 1H5.55L9.2625 12.7548H20.375L25 1" stroke="#585866" stroke-width="1.2" stroke-linecap="round" stroke-linejoin="round"/>
</svg>
