<svg width="25" height="25" viewBox="0 0 25 25" fill="none" xmlns="http://www.w3.org/2000/svg">
<path d="M12.5 23.6092C12.1441 23.6092 11.801 23.4802 11.5335 23.246C10.5236 22.3629 9.5499 21.533 8.69083 20.801L8.68645 20.7972C6.16779 18.6508 3.99284 16.7973 2.47955 14.9714C0.787926 12.9301 0 10.9947 0 8.88042C0 6.82621 0.704384 4.93107 1.98326 3.54385C3.2774 2.14024 5.05314 1.36719 6.98395 1.36719C8.42705 1.36719 9.74865 1.82343 10.9119 2.72312C11.499 3.17726 12.0312 3.73306 12.5 4.38137C12.969 3.73306 13.501 3.17726 14.0882 2.72312C15.2515 1.82343 16.5731 1.36719 18.0162 1.36719C19.9469 1.36719 21.7228 2.14024 23.0169 3.54385C24.2958 4.93107 25 6.82621 25 8.88042C25 10.9947 24.2123 12.9301 22.5206 14.9712C21.0073 16.7973 18.8326 18.6506 16.3143 20.7968C15.4537 21.53 14.4785 22.3612 13.4663 23.2464C13.199 23.4802 12.8557 23.6092 12.5 23.6092ZM6.98395 2.83165C5.46703 2.83165 4.07352 3.43704 3.05977 4.53644C2.03094 5.65243 1.46427 7.19509 1.46427 8.88042C1.46427 10.6586 2.12517 12.249 3.60699 14.0369C5.03922 15.7652 7.16953 17.5806 9.63612 19.6827L9.64069 19.6865C10.503 20.4214 11.4805 21.2545 12.4979 22.1441C13.5214 21.2528 14.5004 20.4184 15.3645 19.6823C17.8308 17.5802 19.961 15.7652 21.3932 14.0369C22.8748 12.249 23.5357 10.6586 23.5357 8.88042C23.5357 7.19509 22.9691 5.65243 21.9402 4.53644C20.9267 3.43704 19.533 2.83165 18.0162 2.83165C16.905 2.83165 15.8848 3.18489 14.9839 3.88145C14.1811 4.50249 13.6219 5.28755 13.294 5.83687C13.1254 6.11935 12.8286 6.28796 12.5 6.28796C12.1714 6.28796 11.8746 6.11935 11.706 5.83687C11.3783 5.28755 10.8191 4.50249 10.0161 3.88145C9.11522 3.18489 8.09498 2.83165 6.98395 2.83165Z" fill="#CCCCCC"/>
</svg>
