<svg width="137" height="18" viewBox="0 0 137 18" fill="none" xmlns="http://www.w3.org/2000/svg">
<path d="M19.8623 9.81182V9.80948L13.8895 0.882416L6.44079 11.982L6.4314 11.996H10.1996L13.8833 6.51475L19.0296 14.1983L19.039 14.2124L19.046 14.1967C19.6368 12.8127 19.9157 11.3157 19.8631 9.81182" fill="#25252E"/>
<path d="M13.9192 14.8681H1.12381L11.026 0.0762313L11.0338 0.0637097L11.0197 0.0621446C9.67387 -0.0902826 8.31104 0.0384325 7.01753 0.440138L7.01205 0.44092L0.00156519 10.9144L0 10.9175V10.9206C0.0992354 12.2974 0.476756 13.6398 1.10972 14.8665L1.11755 14.8821C1.73376 16.0769 2.58223 17.1366 3.61324 17.9992L3.61559 18H16.0158L13.9216 14.872L13.9192 14.8681Z" fill="#25252E"/>
<path d="M32.3494 7.69473H38.6367V9.86722H32.3494V13.6526H39.147V15.8243H29.8036V2.17587H39.1478V4.34836H32.3494V7.69473Z" fill="#25252E"/>
<path d="M52.4494 10.4949C52.4497 11.2299 52.3052 11.9577 52.0242 12.6369C51.7431 13.3161 51.331 13.9332 50.8114 14.453C50.2917 14.9729 49.6748 15.3852 48.9958 15.6666C48.3167 15.9479 47.5889 16.0928 46.8539 16.0928C46.119 16.0924 45.3914 15.9474 44.7126 15.6658C44.0337 15.3843 43.417 14.9718 42.8976 14.4519C42.3783 13.932 41.9664 13.3149 41.6855 12.6358C41.4046 11.9567 41.2603 11.229 41.2607 10.4941V2.17587H43.8065V10.8705C43.8063 11.6792 44.1273 12.4549 44.6989 13.027C45.2705 13.599 46.046 13.9206 46.8547 13.9211C47.6634 13.9206 48.4388 13.599 49.0104 13.027C49.5821 12.4549 49.9031 11.6792 49.9029 10.8705V2.17587H52.4487L52.4494 10.4949Z" fill="#25252E"/>
<path d="M61.2209 4.34689C61.7199 4.34772 62.1982 4.54641 62.5509 4.8994C62.9036 5.25238 63.1019 5.73083 63.1023 6.22981C63.1017 6.72866 62.9033 7.20691 62.5506 7.55973C62.198 7.91254 61.7198 8.11113 61.2209 8.11195H57.4488V4.34689H61.2209ZM57.4488 10.2844H60.1284L63.3167 15.8252L66.2303 15.8244L62.8675 9.97844C64.6745 9.30072 65.6301 8.00474 65.6301 6.22981C65.6301 5.26331 65.1527 4.25611 64.3208 3.46569C63.4443 2.63301 62.3213 2.17441 61.1591 2.17441H54.9015V15.8252L57.4473 15.826H57.4481L57.4488 10.2844Z" fill="#25252E"/>
<path d="M77.3352 5.48867C78.1961 6.373 78.6516 7.58681 78.6516 9.00017C78.6516 10.4135 78.1961 11.6281 77.3352 12.5117C76.5174 13.3506 75.3889 13.8131 74.1579 13.8131C72.9253 13.8131 71.7968 13.3514 70.9798 12.5117C70.1189 11.6273 69.6635 10.4143 69.6635 9.00017C69.6635 7.6815 70.0947 6.47317 70.878 5.59745C71.7037 4.67477 72.8377 4.18722 74.1571 4.18722C75.3889 4.18722 76.5174 4.64973 77.3345 5.48867H77.3352ZM81.1167 9.00017C81.1167 5.08955 77.9942 1.90752 74.1579 1.90752C70.3201 1.90752 67.1983 5.08955 67.1983 9.00017C67.192 10.8649 67.9165 12.6579 69.2166 13.9947C69.8561 14.6596 70.6236 15.1882 71.4728 15.5486C72.322 15.9091 73.2354 16.0939 74.1579 16.092C77.995 16.092 81.1167 12.9108 81.1167 9.00017V9.00017Z" fill="#25252E"/>
<path d="M88.9888 4.34757C89.4561 4.34757 89.8967 4.50801 90.2308 4.79835C90.5728 5.09573 90.7606 5.49955 90.7606 5.93389C90.7606 6.8237 90.0054 7.521 89.0413 7.521H85.7395V4.34757H88.9888ZM89.0937 9.6927C90.3036 9.6927 91.2889 10.5802 91.2889 11.6727C91.2889 12.8951 90.1494 13.6526 89.0937 13.6526H85.7395V9.6927H89.0937ZM92.3853 14.5417C93.1538 13.7692 93.5952 12.7519 93.5952 11.7494C93.5952 9.9353 92.786 8.88349 90.9719 8.34116C92.2476 7.83638 93.0411 6.70553 93.0411 5.39077C93.0411 3.37872 91.2036 2.17587 89.4279 2.17587H83.1937V15.8243H89.449C90.5566 15.7917 91.6087 15.3321 92.3853 14.5417V14.5417Z" fill="#25252E"/>
<path d="M124.498 2.17587H127.046V7.96864L132.547 2.17587H135.604L130.492 7.55856L136.172 15.8243H133.26L128.803 9.33662L127.046 11.1851V15.8243H124.498V2.17587Z" fill="#25252E"/>
<path d="M103.107 10.0185H99.3965L101.251 5.19611L103.107 10.0185ZM97.163 15.8253L98.5607 12.1894H103.943L105.343 15.8245L107.892 15.8237L102.413 2.17529H100.089L94.6118 15.8245H97.1622L97.163 15.8253Z" fill="#25252E"/>
<path d="M112.42 2.17587L118.684 11.938V2.17587H121.231V15.8243H118.633L112.42 6.14519V15.8243H109.873V2.17587H112.42Z" fill="#25252E"/>
</svg>
