<svg width="68" height="16" viewBox="0 0 68 16" fill="none" xmlns="http://www.w3.org/2000/svg">
<g clip-path="url(#clip0_36_769)">
<path d="M11.9145 0.5H8.60586C8.60586 3.21513 7.35957 5.69288 5.19339 7.32493L3.88776 8.30415L8.96194 15.2181H13.1311L8.45749 8.85312C10.6682 6.65727 11.9145 3.68991 11.9145 0.5Z" fill="#25252E"/>
<path d="M3.47233 0.5H0.0895386V15.2181H3.47233V0.5Z" fill="#25252E"/>
<path d="M17.3002 0.5H14.1103V15.2181H17.3002V0.5Z" fill="#25252E"/>
<path d="M45.2824 4.75816C44.0658 4.75816 42.9085 5.12908 42.137 6.1825V5.04006H39.1103V15.2181H42.1815V9.87686C42.1815 8.33383 43.2201 7.57715 44.4664 7.57715C45.8017 7.57715 46.5732 8.37834 46.5732 9.86202V15.2329H49.6148V8.74926C49.6148 6.37537 47.7305 4.75816 45.2824 4.75816Z" fill="#25252E"/>
<path d="M26.9441 5.04006V5.69288C26.0836 5.09941 25.045 4.75816 23.9174 4.75816C20.9501 4.75816 18.5465 7.16172 18.5465 10.1291C18.5465 13.0964 20.9501 15.5 23.9174 15.5C25.045 15.5 26.0836 15.1588 26.9441 14.5653V15.2181H29.9857V5.04006H26.9441ZM24.1697 12.7404C22.6415 12.7404 21.41 11.5683 21.41 10.1291C21.41 8.68991 22.6415 7.51781 24.1697 7.51781C25.6978 7.51781 26.9293 8.68991 26.9293 10.1291C26.9293 11.5683 25.6978 12.7404 24.1697 12.7404Z" fill="#25252E"/>
<path d="M34.7038 6.36053V5.04005H31.5881V15.2181H34.7186V10.4703C34.7186 8.86795 36.4545 8.00741 37.6563 8.00741C37.6711 8.00741 37.686 8.00741 37.686 8.00741V5.04005C36.4545 5.04005 35.3121 5.57418 34.7038 6.36053Z" fill="#25252E"/>
<path d="M59.0806 5.04006V5.69288C58.2201 5.09941 57.1815 4.75816 56.0539 4.75816C53.0866 4.75816 50.683 7.16172 50.683 10.1291C50.683 13.0964 53.0866 15.5 56.0539 15.5C57.1815 15.5 58.2201 15.1588 59.0806 14.5653V15.2181H62.1222V5.04006H59.0806ZM56.3062 12.7404C54.778 12.7404 53.5465 11.5683 53.5465 10.1291C53.5465 8.68991 54.778 7.51781 56.3062 7.51781C57.8343 7.51781 59.0658 8.68991 59.0658 10.1291C59.0806 11.5683 57.8343 12.7404 56.3062 12.7404Z" fill="#25252E"/>
<path d="M64.4812 5.3368C64.4812 5.18843 64.3774 5.09941 64.2142 5.09941H63.9323V5.87092H64.0658V5.58903H64.2142L64.3329 5.87092H64.4812L64.3477 5.55935C64.4367 5.51484 64.4812 5.44066 64.4812 5.3368ZM64.2142 5.45549H64.0658V5.21811H64.2142C64.3032 5.21811 64.3477 5.26262 64.3477 5.3368C64.3477 5.41098 64.318 5.45549 64.2142 5.45549Z" fill="#25252E"/>
<path d="M64.1697 4.77299C63.7691 4.77299 63.4427 5.0994 63.4427 5.5C63.4575 5.90059 63.7691 6.227 64.1697 6.227C64.5703 6.227 64.8967 5.90059 64.8967 5.5C64.8967 5.0994 64.5703 4.77299 64.1697 4.77299ZM64.1697 6.09347C63.8433 6.09347 63.591 5.82641 63.591 5.5C63.591 5.17359 63.8581 4.90653 64.1697 4.90653C64.4961 4.90653 64.7483 5.17359 64.7483 5.5C64.7483 5.82641 64.4812 6.09347 64.1697 6.09347Z" fill="#25252E"/>
<path d="M65.3714 11.6128C64.318 11.6128 63.4575 12.4733 63.4575 13.5267C63.4575 14.5801 64.318 15.4407 65.3714 15.4407C66.4248 15.4407 67.2854 14.5801 67.2854 13.5267C67.2854 12.4585 66.4248 11.6128 65.3714 11.6128Z" fill="#25252E"/>
</g>
<defs>
<clipPath id="clip0_36_769">
<rect width="67.1958" height="15" fill="white" transform="translate(0.0895386 0.5)"/>
</clipPath>
</defs>
</svg>
