<svg width="25" height="20" viewBox="0 0 25 20" fill="none" xmlns="http://www.w3.org/2000/svg">
<path d="M15.7043 1.58366H9.22275V13.2311H15.7043V1.58366Z" fill="#25252E"/>
<path d="M9.63432 7.40743C9.6333 6.2857 9.8875 5.17844 10.3777 4.16947C10.8678 3.1605 11.5811 2.27626 12.4635 1.58371C11.3708 0.724786 10.0584 0.190634 8.67645 0.0423053C7.29448 -0.106023 5.89865 0.137459 4.64852 0.744921C3.39838 1.35238 2.34438 2.29931 1.60697 3.47748C0.869568 4.65565 0.478516 6.01752 0.478516 7.40743C0.478516 8.79734 0.869568 10.1592 1.60697 11.3374C2.34438 12.5156 3.39838 13.4625 4.64852 14.07C5.89865 14.6774 7.29448 14.9209 8.67645 14.7726C10.0584 14.6242 11.3708 14.0901 12.4635 13.2312C11.5811 12.5386 10.8678 11.6544 10.3777 10.6454C9.8875 9.63643 9.6333 8.52916 9.63432 7.40743V7.40743Z" fill="#25252E"/>
<path d="M23.7415 11.9974V11.759H23.8376V11.7104H23.5927V11.759H23.6889V11.9974H23.7415ZM24.2169 11.9974V11.7099H24.1418L24.0555 11.9077L23.9691 11.7099H23.894V11.9974H23.947V11.7806L24.028 11.9675H24.083L24.1639 11.7801V11.9974H24.2169Z" fill="#25252E"/>
<path d="M24.4482 7.40743C24.4482 8.79732 24.0572 10.1592 23.3198 11.3374C22.5825 12.5155 21.5285 13.4625 20.2784 14.0699C19.0283 14.6774 17.6325 14.9209 16.2505 14.7726C14.8686 14.6242 13.5562 14.0901 12.4635 13.2312C13.3451 12.5379 14.0579 11.6535 14.548 10.6447C15.038 9.6359 15.2927 8.52899 15.2927 7.40743C15.2927 6.28588 15.038 5.17896 14.548 4.17015C14.0579 3.16134 13.3451 2.27696 12.4635 1.58371C13.5562 0.724783 14.8686 0.19063 16.2505 0.042304C17.6325 -0.106022 19.0283 0.137464 20.2784 0.744933C21.5285 1.3524 22.5825 2.29934 23.3198 3.47751C24.0572 4.65568 24.4482 6.01754 24.4482 7.40743V7.40743Z" fill="#25252E"/>
<path d="M6.78278 19.8873V18.5648C6.79053 18.4536 6.77448 18.342 6.7357 18.2375C6.69692 18.133 6.6363 18.0379 6.55788 17.9586C6.47946 17.8794 6.38504 17.8177 6.28092 17.7779C6.1768 17.738 6.06537 17.7207 5.95407 17.7273C5.80841 17.7178 5.66287 17.7476 5.53262 17.8135C5.40237 17.8794 5.29218 17.979 5.21353 18.102C5.14186 17.9827 5.03934 17.8849 4.91676 17.819C4.79419 17.753 4.6561 17.7214 4.51704 17.7273C4.39583 17.7212 4.27513 17.7469 4.16689 17.8018C4.05865 17.8567 3.96663 17.9389 3.89993 18.0403V17.7802H3.44147V19.8873H3.90432V18.7192C3.89431 18.6471 3.90038 18.5737 3.92211 18.5042C3.94384 18.4348 3.98069 18.371 4.03 18.3175C4.0793 18.264 4.13986 18.222 4.2073 18.1947C4.27474 18.1673 4.3474 18.1553 4.42006 18.1594C4.72421 18.1594 4.87852 18.3577 4.87852 18.7147V19.8873H5.34137V18.7192C5.33212 18.6472 5.33872 18.5741 5.36073 18.505C5.38273 18.4359 5.41961 18.3724 5.46876 18.319C5.51792 18.2657 5.57815 18.2238 5.64524 18.1962C5.71234 18.1686 5.78465 18.156 5.85712 18.1594C6.17005 18.1594 6.31995 18.3577 6.31995 18.7147V19.8873H6.78278ZM9.36593 18.8337V17.7802H8.90747V18.0359C8.82921 17.9351 8.72795 17.8544 8.61214 17.8007C8.49634 17.747 8.36936 17.7219 8.24183 17.7273C7.95777 17.7413 7.68996 17.8639 7.49384 18.0699C7.29773 18.2759 7.18834 18.5494 7.18834 18.8338C7.18834 19.1182 7.29773 19.3917 7.49384 19.5976C7.68996 19.8036 7.95777 19.9263 8.24183 19.9402C8.36936 19.9457 8.49634 19.9205 8.61214 19.8668C8.72795 19.8131 8.82922 19.7325 8.90747 19.6316V19.8873H9.36593V18.8337ZM7.66001 18.8337C7.66713 18.7094 7.71048 18.5899 7.78471 18.4899C7.85895 18.3899 7.96083 18.3138 8.07779 18.271C8.19474 18.2282 8.32166 18.2206 8.4429 18.2491C8.56413 18.2776 8.67437 18.3409 8.76004 18.4313C8.8457 18.5217 8.90304 18.6352 8.92497 18.7578C8.94691 18.8804 8.93249 19.0067 8.88349 19.1212C8.83449 19.2357 8.75305 19.3334 8.64921 19.4021C8.54538 19.4709 8.42369 19.5077 8.29915 19.5082C8.21187 19.5093 8.12529 19.4924 8.04486 19.4585C7.96444 19.4245 7.89191 19.3743 7.83187 19.3109C7.77182 19.2476 7.72555 19.1725 7.69597 19.0903C7.66639 19.0082 7.65415 18.9208 7.66001 18.8337ZM19.1754 17.7248C19.3302 17.7234 19.4838 17.7521 19.6276 17.8096C19.7616 17.8631 19.8838 17.9423 19.9873 18.0428C20.0891 18.1427 20.1699 18.262 20.2249 18.3937C20.3394 18.6759 20.3394 18.9916 20.2249 19.2738C20.17 19.4055 20.0892 19.5248 19.9873 19.6248C19.8838 19.7253 19.7616 19.8045 19.6276 19.8579C19.3367 19.9709 19.0141 19.9709 18.7233 19.8579C18.5895 19.8046 18.4676 19.7254 18.3646 19.6248C18.2633 19.5246 18.1829 19.4052 18.1281 19.2738C18.0137 18.9916 18.0137 18.6759 18.1281 18.3937C18.183 18.2623 18.2634 18.143 18.3646 18.0428C18.4676 17.9422 18.5895 17.8629 18.7233 17.8096C18.867 17.7521 19.0206 17.7234 19.1754 17.7248V17.7248ZM19.1754 18.1583C19.0857 18.1575 18.9968 18.1743 18.9136 18.2078C18.8352 18.2393 18.7641 18.2864 18.7046 18.3464C18.6447 18.4077 18.5976 18.4802 18.566 18.5599C18.4985 18.7362 18.4985 18.9313 18.566 19.1077C18.5976 19.1873 18.6447 19.2599 18.7046 19.3211C18.7641 19.3811 18.8352 19.4283 18.9136 19.4597C19.0819 19.5258 19.2689 19.5258 19.4372 19.4597C19.5158 19.4281 19.5873 19.381 19.6473 19.3211C19.7078 19.2601 19.7553 19.1875 19.7871 19.1077C19.8546 18.9313 19.8546 18.7362 19.7871 18.5599C19.7553 18.48 19.7078 18.4075 19.6473 18.3464C19.5873 18.2866 19.5158 18.2395 19.4372 18.2078C19.354 18.1743 19.2651 18.1575 19.1754 18.1583V18.1583ZM11.8605 18.8337C11.8561 18.177 11.4505 17.7273 10.8599 17.7273C10.5739 17.7423 10.3049 17.8675 10.1093 18.0765C9.91368 18.2856 9.80663 18.5623 9.81062 18.8486C9.81461 19.1349 9.92934 19.4085 10.1307 19.612C10.3321 19.8156 10.6045 19.9332 10.8907 19.9402C11.2052 19.9512 11.5128 19.8461 11.7547 19.6448L11.5299 19.3054C11.3558 19.4449 11.1402 19.5225 10.9172 19.5258C10.7657 19.5385 10.6152 19.4918 10.4975 19.3956C10.3799 19.2993 10.3043 19.1611 10.2868 19.0101H11.8517C11.8561 18.9528 11.8605 18.8955 11.8605 18.8337ZM10.2912 18.6486C10.2993 18.5072 10.3623 18.3745 10.467 18.2789C10.5716 18.1834 10.7094 18.1325 10.851 18.1373C10.9895 18.1346 11.1234 18.1869 11.2234 18.2827C11.3234 18.3786 11.3813 18.5102 11.3844 18.6486H10.2912ZM13.7911 18.318C13.5911 18.203 13.3651 18.1408 13.1343 18.1373C12.883 18.1373 12.7332 18.2299 12.7332 18.3842C12.7332 18.5252 12.8919 18.5648 13.0903 18.5913L13.3062 18.6221C13.7647 18.6883 14.0424 18.8822 14.0424 19.2525C14.0424 19.6536 13.6897 19.9402 13.0814 19.9402C12.7558 19.9492 12.436 19.8534 12.169 19.6668L12.3849 19.3098C12.5872 19.4598 12.8341 19.5375 13.0858 19.5302C13.3988 19.5302 13.5663 19.4377 13.5663 19.2746C13.5663 19.1555 13.4473 19.0894 13.1961 19.0542L12.98 19.0233C12.5084 18.9572 12.2527 18.7456 12.2527 18.4018C12.2527 17.983 12.5965 17.7273 13.1299 17.7273C13.4316 17.7169 13.73 17.7934 13.9895 17.9478L13.7911 18.318ZM15.9939 18.199H15.2446V19.1512C15.2446 19.3627 15.3195 19.5038 15.5487 19.5038C15.6918 19.499 15.8314 19.4581 15.9543 19.3848L16.0865 19.7771C15.9146 19.8843 15.716 19.9408 15.5135 19.9402C14.9713 19.9402 14.7818 19.6493 14.7818 19.1599V18.199H14.3542V17.7802H14.7818L14.7816 17.1411H15.2445L15.2446 17.7802H15.9939V18.199ZM17.5805 17.7273C17.6917 17.7278 17.802 17.7472 17.9067 17.7847L17.7657 18.2166C17.6745 18.1804 17.5772 18.1624 17.4791 18.1637C17.1794 18.1637 17.0295 18.3577 17.0295 18.7059V19.8873H16.5711V17.7802H17.0251V18.0359C17.0814 17.9392 17.1626 17.8596 17.2604 17.8053C17.3581 17.751 17.4687 17.724 17.5805 17.7273V17.7273ZM20.7543 19.5806C20.7828 19.5804 20.8111 19.586 20.8373 19.597C20.8626 19.6076 20.8856 19.6228 20.9052 19.642C20.9246 19.6611 20.9401 19.6838 20.9509 19.7088C20.9619 19.7345 20.9676 19.7622 20.9676 19.7902C20.9676 19.8181 20.9619 19.8458 20.9509 19.8715C20.94 19.8964 20.9245 19.919 20.9052 19.938C20.8856 19.9572 20.8626 19.9725 20.8373 19.9832C20.8111 19.9945 20.7828 20.0002 20.7543 20C20.7123 20.0004 20.6711 19.9884 20.6359 19.9656C20.6006 19.9427 20.5729 19.91 20.5562 19.8715C20.5452 19.8458 20.5395 19.8181 20.5395 19.7902C20.5395 19.7622 20.5452 19.7345 20.5562 19.7088C20.5669 19.6838 20.5824 19.6611 20.6017 19.642C20.6212 19.6227 20.6444 19.6074 20.6698 19.597C20.6966 19.5859 20.7253 19.5803 20.7543 19.5806V19.5806ZM20.7543 19.9537C20.776 19.9539 20.7976 19.9495 20.8176 19.9409C20.8367 19.9325 20.8541 19.9207 20.8689 19.9059C20.8879 19.887 20.9019 19.8638 20.9097 19.8382C20.9176 19.8127 20.919 19.7856 20.914 19.7593C20.9089 19.733 20.8974 19.7084 20.8806 19.6876C20.8638 19.6668 20.8422 19.6504 20.8176 19.64C20.7976 19.6314 20.776 19.6271 20.7543 19.6273C20.7322 19.6272 20.7102 19.6315 20.6898 19.64C20.6703 19.648 20.6526 19.6597 20.6376 19.6746C20.6072 19.7054 20.59 19.7469 20.59 19.7903C20.59 19.8336 20.6072 19.8752 20.6376 19.9059C20.653 19.9212 20.6712 19.9333 20.6912 19.9415C20.7112 19.9497 20.7327 19.9538 20.7543 19.9537V19.9537ZM20.7666 19.6921C20.7873 19.6907 20.8078 19.6967 20.8245 19.7088C20.8312 19.7143 20.8365 19.7213 20.84 19.7292C20.8435 19.7371 20.8451 19.7457 20.8448 19.7543C20.845 19.7617 20.8437 19.7691 20.8409 19.7759C20.8381 19.7828 20.8339 19.789 20.8286 19.7941C20.8158 19.8055 20.7996 19.8122 20.7826 19.8134L20.8463 19.8869H20.7965L20.7374 19.8139H20.7183V19.8869H20.6767V19.6921H20.7666ZM20.7183 19.7286V19.7805H20.7662C20.7753 19.781 20.7845 19.7787 20.7924 19.774C20.7956 19.7719 20.7982 19.7689 20.7999 19.7655C20.8016 19.762 20.8024 19.7582 20.8021 19.7543C20.8023 19.7505 20.8015 19.7467 20.7998 19.7433C20.7981 19.7399 20.7955 19.7371 20.7924 19.735C20.7844 19.7304 20.7753 19.7281 20.7662 19.7286H20.7183Z" fill="#25252E"/>
</svg>
