<svg width="27" height="20" viewBox="0 0 27 20" fill="none" xmlns="http://www.w3.org/2000/svg">
<path d="M5.39348 19.9562V18.6288C5.39348 18.1211 5.0842 17.7886 4.55327 17.7886C4.28781 17.7886 3.99915 17.8763 3.8007 18.1649C3.64606 17.9226 3.42441 17.7886 3.09193 17.7886C2.87028 17.7886 2.64864 17.8556 2.47338 18.0979V17.8324H2.00946V19.9562H2.47338V18.7835C2.47338 18.4072 2.67183 18.2293 2.98111 18.2293C3.29039 18.2293 3.44503 18.4278 3.44503 18.7835V19.9562H3.90894V18.7835C3.90894 18.4072 4.13059 18.2293 4.41668 18.2293C4.72595 18.2293 4.88059 18.4278 4.88059 18.7835V19.9562H5.39348ZM12.2749 17.8324H11.5223V17.1907H11.0584V17.8324H10.6383V18.2525H11.0584V19.2268C11.0584 19.7139 11.2569 20 11.7878 20C11.9863 20 12.2079 19.933 12.3625 19.8453L12.2285 19.4458C12.0945 19.5335 11.9399 19.5567 11.829 19.5567C11.6074 19.5567 11.5198 19.4226 11.5198 19.2036V18.2525H12.2723V17.8324H12.2749ZM16.2131 17.786C15.9476 17.786 15.7698 17.9201 15.6589 18.0953V17.8299H15.195V19.9536H15.6589V18.7577C15.6589 18.4046 15.8136 18.2036 16.1022 18.2036C16.1899 18.2036 16.3007 18.2268 16.3909 18.2474L16.5249 17.8041C16.4321 17.786 16.3007 17.786 16.2131 17.786ZM10.262 18.0077C10.0404 17.8531 9.73111 17.786 9.39863 17.786C8.86771 17.786 8.51461 18.0515 8.51461 18.4716C8.51461 18.8247 8.78008 19.0257 9.24399 19.0902L9.46564 19.1134C9.70791 19.1572 9.84193 19.2242 9.84193 19.335C9.84193 19.4897 9.6641 19.6005 9.35482 19.6005C9.04554 19.6005 8.80069 19.4897 8.64606 19.3788L8.42441 19.7319C8.66667 19.9098 8.99915 19.9974 9.33162 19.9974C9.95018 19.9974 10.3058 19.7087 10.3058 19.3118C10.3058 18.9355 10.0172 18.7371 9.57647 18.6701L9.35482 18.6469C9.15636 18.6237 9.00173 18.5799 9.00173 18.4484C9.00173 18.2938 9.15636 18.2062 9.40121 18.2062C9.66667 18.2062 9.93214 18.317 10.0662 18.384L10.262 18.0077ZM22.6048 17.786C22.3393 17.786 22.1615 17.9201 22.0507 18.0953V17.8299H21.5868V19.9536H22.0507V18.7577C22.0507 18.4046 22.2053 18.2036 22.494 18.2036C22.5816 18.2036 22.6924 18.2268 22.7826 18.2474L22.9167 17.8092C22.8265 17.786 22.695 17.786 22.6048 17.786ZM16.677 18.8943C16.677 19.536 17.1203 20 17.8058 20C18.1151 20 18.3368 19.933 18.5584 19.7577L18.3368 19.3814C18.1589 19.5154 17.9837 19.5799 17.7826 19.5799C17.4064 19.5799 17.1409 19.3144 17.1409 18.8943C17.1409 18.4948 17.4064 18.2293 17.7826 18.2087C17.9811 18.2087 18.1589 18.2757 18.3368 18.4072L18.5584 18.0309C18.3368 17.8531 18.1151 17.7886 17.8058 17.7886C17.1203 17.786 16.677 18.2525 16.677 18.8943ZM20.9682 18.8943V17.8324H20.5043V18.0979C20.3497 17.8995 20.128 17.7886 19.8393 17.7886C19.2414 17.7886 18.7775 18.2525 18.7775 18.8943C18.7775 19.536 19.2414 20 19.8393 20C20.1486 20 20.3703 19.8891 20.5043 19.6907V19.9562H20.9682V18.8943ZM19.2646 18.8943C19.2646 18.518 19.5069 18.2087 19.9064 18.2087C20.2826 18.2087 20.5481 18.4974 20.5481 18.8943C20.5481 19.2706 20.2826 19.5799 19.9064 19.5799C19.5095 19.5567 19.2646 19.268 19.2646 18.8943ZM13.7131 17.786C13.0945 17.786 12.6512 18.2293 12.6512 18.8917C12.6512 19.5567 13.0945 19.9974 13.7363 19.9974C14.0455 19.9974 14.3548 19.9098 14.5997 19.7087L14.378 19.3763C14.2002 19.5103 13.9785 19.5979 13.7595 19.5979C13.4708 19.5979 13.1847 19.4639 13.1177 19.0902H14.6873C14.6873 19.0232 14.6873 18.9793 14.6873 18.9123C14.7079 18.2293 14.3084 17.786 13.7131 17.786ZM13.7131 18.1855C14.0017 18.1855 14.2002 18.3634 14.244 18.6933H13.1383C13.1821 18.4072 13.3806 18.1855 13.7131 18.1855ZM25.2388 18.8943V16.9922H24.7749V18.0979C24.6203 17.8995 24.3986 17.7886 24.11 17.7886C23.512 17.7886 23.0481 18.2525 23.0481 18.8943C23.0481 19.536 23.512 20 24.11 20C24.4192 20 24.6409 19.8891 24.7749 19.6907V19.9562H25.2388V18.8943ZM23.5352 18.8943C23.5352 18.518 23.7775 18.2087 24.177 18.2087C24.5533 18.2087 24.8187 18.4974 24.8187 18.8943C24.8187 19.2706 24.5533 19.5799 24.177 19.5799C23.7775 19.5567 23.5352 19.268 23.5352 18.8943ZM8.0043 18.8943V17.8324H7.54039V18.0979C7.38575 17.8995 7.1641 17.7886 6.87544 17.7886C6.2775 17.7886 5.81358 18.2525 5.81358 18.8943C5.81358 19.536 6.2775 20 6.87544 20C7.18472 20 7.40637 19.8891 7.54039 19.6907V19.9562H8.0043V18.8943ZM6.28008 18.8943C6.28008 18.518 6.52234 18.2087 6.92183 18.2087C7.29812 18.2087 7.56358 18.4974 7.56358 18.8943C7.56358 19.2706 7.29812 19.5799 6.92183 19.5799C6.52234 19.5567 6.28008 19.268 6.28008 18.8943Z" fill="#25252E"/>
<path d="M17.0762 1.70366H10.1071V14.2243H17.0762V1.70366Z" fill="#25252E"/>
<path d="M10.5711 7.96396C10.5711 5.42015 11.767 3.16242 13.6021 1.70365C12.2515 0.641798 10.5479 4.57764e-05 8.68968 4.57764e-05C4.28762 4.57764e-05 0.725769 3.5619 0.725769 7.96396C0.725769 12.366 4.28762 15.9279 8.68968 15.9279C10.5479 15.9279 12.2515 15.2861 13.6021 14.2243C11.7644 12.7861 10.5711 10.5078 10.5711 7.96396Z" fill="#25252E"/>
<path d="M26.4785 7.96396C26.4785 12.366 22.9167 15.9279 18.5146 15.9279C16.6564 15.9279 14.9527 15.2861 13.6022 14.2243C15.4605 12.7629 16.6332 10.5078 16.6332 7.96396C16.6332 5.42015 15.4373 3.16242 13.6022 1.70365C14.9502 0.641798 16.6538 4.57764e-05 18.512 4.57764e-05C22.9167 4.57764e-05 26.4785 3.5851 26.4785 7.96396Z" fill="#25252E"/>
</svg>
