<svg width="76" height="20" viewBox="0 0 76 20" fill="none" xmlns="http://www.w3.org/2000/svg">
<g clip-path="url(#clip0_36_755)">
<path d="M28.4548 4.0903H24.3099C24.0263 4.0903 23.7851 4.29636 23.7408 4.57636L22.0645 15.2048C22.0311 15.4145 22.1936 15.6036 22.4063 15.6036H24.3851C24.6687 15.6036 24.9099 15.3976 24.9542 15.117L25.4063 12.2503C25.4499 11.9697 25.6917 11.7636 25.9748 11.7636H27.2869C30.0172 11.7636 31.593 10.4424 32.0045 7.82424C32.1899 6.67879 32.0123 5.77879 31.476 5.14848C30.8869 4.45636 29.842 4.0903 28.4548 4.0903ZM28.933 7.97212C28.7063 9.45939 27.5699 9.45939 26.4711 9.45939H25.8457L26.2845 6.68182C26.3105 6.51394 26.456 6.3903 26.6257 6.3903H26.9123C27.6608 6.3903 28.3669 6.3903 28.7317 6.81697C28.9493 7.07151 29.016 7.4497 28.933 7.97212Z" fill="#25252E"/>
<path d="M40.8445 7.92425H38.8596C38.6906 7.92425 38.5445 8.04788 38.5184 8.21576L38.4306 8.77091L38.2918 8.5697C37.8621 7.94606 36.9039 7.73758 35.9475 7.73758C33.7542 7.73758 31.8809 9.39879 31.516 11.7291C31.3263 12.8915 31.596 14.003 32.2554 14.7782C32.8603 15.4909 33.7257 15.7879 34.7554 15.7879C36.5227 15.7879 37.5027 14.6515 37.5027 14.6515L37.4142 15.203C37.3809 15.4139 37.5433 15.603 37.7548 15.603H39.5427C39.8269 15.603 40.0669 15.397 40.1118 15.1164L41.1845 8.32303C41.2184 8.11394 41.0566 7.92425 40.8445 7.92425ZM38.0778 11.7873C37.8863 12.9212 36.9863 13.6824 35.8384 13.6824C35.2621 13.6824 34.8015 13.4976 34.5057 13.1473C34.2124 12.7994 34.1009 12.3042 34.1942 11.7527C34.373 10.6285 35.2881 9.84243 36.4184 9.84243C36.9821 9.84243 37.4403 10.0297 37.7421 10.383C38.0445 10.74 38.1645 11.2382 38.0778 11.7873Z" fill="#25252E"/>
<path d="M51.4154 7.92424H49.4208C49.2305 7.92424 49.0518 8.01879 48.9439 8.17697L46.193 12.2291L45.0269 8.33515C44.9536 8.09151 44.7287 7.92424 44.4742 7.92424H42.5142C42.276 7.92424 42.1105 8.15697 42.1863 8.38121L44.3833 14.8285L42.3178 17.7442C42.1554 17.9739 42.319 18.2897 42.5996 18.2897H44.5918C44.7808 18.2897 44.9578 18.1976 45.0651 18.0424L51.699 8.46666C51.8578 8.23757 51.6948 7.92424 51.4154 7.92424Z" fill="#25252E"/>
<path d="M58.019 4.0903H53.8736C53.5905 4.0903 53.3493 4.29636 53.3051 4.57636L51.6287 15.2048C51.5954 15.4145 51.7578 15.6036 51.9693 15.6036H54.0966C54.2942 15.6036 54.4633 15.4594 54.4942 15.263L54.9699 12.2503C55.0136 11.9697 55.2554 11.7636 55.5384 11.7636H56.8499C59.5809 11.7636 61.156 10.4424 61.5681 7.82424C61.7542 6.67879 61.5754 5.77879 61.039 5.14848C60.4505 4.45636 59.4063 4.0903 58.019 4.0903ZM58.4972 7.97212C58.2712 9.45939 57.1348 9.45939 56.0354 9.45939H55.4105L55.8499 6.68182C55.876 6.51394 56.0202 6.3903 56.1905 6.3903H56.4772C57.2251 6.3903 57.9318 6.3903 58.2966 6.81697C58.5142 7.07151 58.5802 7.4497 58.4972 7.97212Z" fill="#25252E"/>
<path d="M70.4081 7.92425H68.4245C68.2542 7.92425 68.1093 8.04788 68.0839 8.21576L67.996 8.77091L67.8566 8.5697C67.4269 7.94606 66.4693 7.73758 65.513 7.73758C63.3196 7.73758 61.4469 9.39879 61.082 11.7291C60.893 12.8915 61.1614 14.003 61.8208 14.7782C62.4269 15.4909 63.2911 15.7879 64.3208 15.7879C66.0881 15.7879 67.0681 14.6515 67.0681 14.6515L66.9796 15.203C66.9463 15.4139 67.1087 15.603 67.3214 15.603H69.1087C69.3917 15.603 69.633 15.397 69.6772 15.1164L70.7505 8.32303C70.7833 8.11394 70.6208 7.92425 70.4081 7.92425ZM67.6414 11.7873C67.4511 12.9212 66.5499 13.6824 65.4021 13.6824C64.8269 13.6824 64.3651 13.4976 64.0693 13.1473C63.776 12.7994 63.6657 12.3042 63.7578 11.7527C63.9378 10.6285 64.8517 9.84243 65.982 9.84243C66.5457 9.84243 67.0039 10.0297 67.3057 10.383C67.6093 10.74 67.7293 11.2382 67.6414 11.7873Z" fill="#25252E"/>
<path d="M72.7481 4.38181L71.0469 15.2048C71.0136 15.4145 71.176 15.6036 71.3875 15.6036H73.0978C73.3821 15.6036 73.6233 15.3976 73.6669 15.117L75.3445 4.48909C75.3778 4.27939 75.2154 4.08969 75.0039 4.08969H73.0887C72.9196 4.0903 72.7742 4.21393 72.7481 4.38181Z" fill="#25252E"/>
<path d="M4.85176 17.6691L5.16873 15.6558L4.46267 15.6394H1.09116L3.43419 0.78303C3.44146 0.738181 3.4651 0.696363 3.49964 0.666666C3.53419 0.636969 3.57843 0.620605 3.62449 0.620605H9.30934C11.1966 0.620605 12.499 1.01333 13.179 1.78848C13.4978 2.15212 13.7009 2.53212 13.799 2.9503C13.9021 3.38909 13.9039 3.91333 13.8033 4.55273L13.796 4.59939V5.00909L14.1148 5.1897C14.3833 5.33212 14.5966 5.49515 14.7602 5.68182C15.033 5.99273 15.2093 6.38788 15.2839 6.85636C15.3609 7.33818 15.3354 7.91151 15.2093 8.56061C15.0639 9.30727 14.8287 9.95758 14.5112 10.4897C14.219 10.98 13.8469 11.3867 13.4051 11.7018C12.9833 12.0012 12.4821 12.2285 11.9154 12.3739C11.3663 12.517 10.7402 12.5891 10.0536 12.5891H9.61116C9.29479 12.5891 8.98752 12.703 8.74631 12.9073C8.50449 13.1158 8.34449 13.4006 8.2954 13.7121L8.26207 13.8933L7.70207 17.4418L7.67661 17.5721C7.66994 17.6133 7.65843 17.6339 7.64146 17.6479C7.62631 17.6606 7.60449 17.6691 7.58328 17.6691H4.85176Z" fill="#25252E"/>
<path d="M14.4166 4.64667C14.3996 4.75515 14.3803 4.86606 14.3584 4.98C13.6087 8.82909 11.0439 10.1588 7.76813 10.1588H6.10026C5.69965 10.1588 5.36207 10.4497 5.29965 10.8448L4.44571 16.2606L4.20389 17.7958C4.16329 18.0552 4.36329 18.2891 4.6251 18.2891H7.58329C7.93359 18.2891 8.23116 18.0345 8.28632 17.6891L8.31541 17.5388L8.87238 14.0042L8.90813 13.8103C8.96268 13.4636 9.26086 13.2091 9.61116 13.2091H10.0536C12.9196 13.2091 15.1633 12.0455 15.819 8.67818C16.093 7.27152 15.9512 6.09697 15.2263 5.27091C15.0069 5.02182 14.7348 4.81515 14.4166 4.64667Z" fill="#25252E"/>
<path d="M13.6323 4.33394C13.5178 4.30061 13.3996 4.2703 13.2784 4.24303C13.1566 4.21637 13.0317 4.19273 12.9033 4.17212C12.4536 4.0994 11.9608 4.06485 11.433 4.06485H6.9772C6.8675 4.06485 6.76326 4.0897 6.66992 4.13455C6.46447 4.23333 6.31174 4.42788 6.27477 4.66606L5.32689 10.6697L5.29962 10.8449C5.36205 10.4497 5.69962 10.1588 6.10023 10.1588H7.76811C11.0439 10.1588 13.6087 8.82849 14.3584 4.98C14.3808 4.86606 14.3996 4.75515 14.4166 4.64667C14.2269 4.54606 14.0214 4.46 13.8002 4.38667C13.7457 4.36849 13.6893 4.35091 13.6323 4.33394Z" fill="#25252E"/>
<path d="M6.27478 4.66606C6.31175 4.42788 6.46448 4.23333 6.66993 4.13515C6.76387 4.0903 6.86751 4.06545 6.9772 4.06545H11.433C11.9608 4.06545 12.4536 4.1 12.9033 4.17273C13.0317 4.19333 13.1566 4.21697 13.2784 4.24364C13.3996 4.27091 13.5178 4.30121 13.6324 4.33455C13.6893 4.35152 13.7457 4.36909 13.8008 4.38667C14.0221 4.46 14.2275 4.54667 14.4172 4.64667C14.6402 3.22424 14.4154 2.25576 13.6463 1.37879C12.7984 0.413333 11.2681 0 9.30993 0H3.62508C3.22508 0 2.88387 0.290909 2.82205 0.686667L0.454174 15.6958C0.407507 15.9927 0.636598 16.2606 0.935992 16.2606H4.44569L5.3269 10.6697L6.27478 4.66606Z" fill="#25252E"/>
</g>
<defs>
<clipPath id="clip0_36_755">
<rect width="75.1515" height="20" fill="white" transform="translate(0.44812)"/>
</clipPath>
</defs>
</svg>
