<svg width="17" height="20" viewBox="0 0 17 20" fill="none" xmlns="http://www.w3.org/2000/svg">
<g clip-path="url(#clip0_36_766)">
<path fill-rule="evenodd" clip-rule="evenodd" d="M3.95088 7.66765H15.0528C15.3275 7.66851 15.5907 7.77801 15.7849 7.97226C15.9792 8.16651 16.0887 8.42972 16.0895 8.70443V9.97071H0.59964V8.70443C0.600498 8.42972 0.710006 8.16651 0.904255 7.97226C1.0985 7.77801 1.36172 7.66851 1.63642 7.66765H3.95088ZM16.0895 10.887V18.9616C16.0891 19.2366 15.9798 19.5002 15.7855 19.6948C15.5912 19.8894 15.3278 19.9991 15.0528 20H1.63642C1.36143 19.9991 1.09798 19.8894 0.903682 19.6948C0.709387 19.5002 0.600069 19.2366 0.59964 18.9616V10.887H16.0895ZM2.5609 17.1338L2.7611 15.9587C3.1457 16.0612 3.54149 16.1158 3.93948 16.1214C4.22166 16.1248 4.50378 16.1106 4.78421 16.0791V15.7243L4.14293 15.6673C3.56351 15.6152 3.16583 15.4764 2.9499 15.2507C2.73397 15.025 2.62546 14.6913 2.62438 14.2497C2.62438 13.642 2.75622 13.2243 3.01989 12.9964C3.28356 12.7686 3.73115 12.6546 4.36266 12.6546C4.93719 12.6491 5.5105 12.7086 6.07165 12.832L5.89261 13.9714C5.5421 13.909 5.18733 13.8736 4.83141 13.8656C4.60573 13.8631 4.38011 13.875 4.15596 13.9014V14.2497L4.66865 14.3001C5.2904 14.362 5.72008 14.5101 5.95771 14.7445C6.08029 14.8745 6.17511 15.0282 6.23639 15.1961C6.29767 15.364 6.32413 15.5426 6.31416 15.721C6.32103 15.9792 6.27963 16.2365 6.19209 16.4795C6.13075 16.6551 6.03252 16.8155 5.904 16.9499C5.76861 17.0693 5.60597 17.1537 5.43037 17.1956C5.25505 17.247 5.07518 17.2814 4.89326 17.2982C4.73864 17.3112 4.53356 17.3161 4.2764 17.3161C3.69879 17.3204 3.12262 17.2582 2.55928 17.1305L2.5609 17.1338ZM6.83174 17.1338L7.0303 15.9587C7.41493 16.0611 7.8107 16.1157 8.20869 16.1214C8.49087 16.1248 8.77299 16.1107 9.05342 16.0791V15.7243L8.41214 15.6673C7.83271 15.6152 7.43503 15.4764 7.21911 15.2507C7.00426 15.026 6.89359 14.6924 6.89359 14.2497C6.89359 13.642 7.02542 13.2243 7.28909 12.9964C7.55276 12.7686 8.00036 12.6546 8.63187 12.6546C9.2064 12.6491 9.77971 12.7086 10.3409 12.832L10.1634 13.9714C9.81296 13.9086 9.45819 13.8727 9.10224 13.8639C8.87602 13.8614 8.64986 13.8734 8.42516 13.8997V14.2481L8.93786 14.2985C9.5596 14.3604 9.98929 14.5085 10.2269 14.7428C10.3495 14.8729 10.4443 15.0266 10.5056 15.1945C10.5669 15.3623 10.5933 15.541 10.5834 15.7194C10.5902 15.9776 10.5488 16.2348 10.4613 16.4779C10.4007 16.6538 10.3023 16.8143 10.1732 16.9482C10.0383 17.0684 9.87546 17.1528 9.69958 17.194C9.52433 17.2457 9.34443 17.28 9.16247 17.2966C9.00784 17.3096 8.80277 17.3145 8.5456 17.3145C7.96854 17.3188 7.3929 17.2565 6.83011 17.1289L6.83174 17.1338ZM14.1283 17.2135H11.2784V12.7621H12.7041V16.0726H14.1283V17.2119V17.2135Z" fill="#25252E"/>
<path fill-rule="evenodd" clip-rule="evenodd" d="M12.7383 7.66764V6.58854C12.7438 5.36777 12.2773 4.19211 11.4362 3.30729C11.0403 2.88346 10.5615 2.54553 10.0295 2.31449C9.49756 2.08345 8.92377 1.96423 8.34379 1.96423C7.7638 1.96423 7.19001 2.08345 6.65803 2.31449C6.12606 2.54553 5.64725 2.88346 5.25134 3.30729C4.41026 4.19211 3.94372 5.36777 3.94925 6.58854V7.66764H1.98636V6.58854C1.9841 4.86197 2.64885 3.20126 3.84183 1.95313C4.41921 1.33755 5.11668 0.846908 5.89115 0.511498C6.66561 0.176087 7.50062 0.0030365 8.3446 0.0030365C9.18858 0.0030365 10.0236 0.176087 10.7981 0.511498C11.5725 0.846908 12.27 1.33755 12.8474 1.95313C14.0414 3.20188 14.7063 4.86404 14.7028 6.5918V7.6709L12.7383 7.66764Z" fill="#25252E"/>
</g>
<defs>
<clipPath id="clip0_36_766">
<rect width="15.4899" height="20" fill="white" transform="translate(0.59964)"/>
</clipPath>
</defs>
</svg>
