<svg width="56" height="18" viewBox="0 0 56 18" fill="none" xmlns="http://www.w3.org/2000/svg">
<path d="M36.356 0C32.4115 0 28.8864 2.04454 28.8864 5.822C28.8864 10.154 35.1382 10.4532 35.1382 12.6295C35.1382 13.5459 34.0881 14.3661 32.2945 14.3661C29.7491 14.3661 27.8466 13.22 27.8466 13.22L27.0326 17.0318C27.0326 17.0318 29.2242 18 32.1339 18C36.4465 18 39.8401 15.8551 39.8401 12.013C39.8401 7.43546 33.5622 7.14514 33.5622 5.12518C33.5622 4.40736 34.4243 3.62084 36.2128 3.62084C38.2307 3.62084 39.877 4.45441 39.877 4.45441L40.6737 0.772793C40.6737 0.772793 38.8823 0 36.356 0V0ZM0.267023 0.277859L0.171509 0.833575C0.171509 0.833575 1.831 1.13729 3.32563 1.74313C5.2501 2.43784 5.38719 2.84227 5.71131 4.09841L9.24314 17.7135H13.9776L21.2714 0.277859H16.5478L11.8611 12.1324L9.94864 2.08394C9.77325 0.933896 8.88486 0.277859 7.79741 0.277859H0.267023V0.277859ZM23.1708 0.277859L19.4653 17.7135H23.9696L27.6621 0.277859H23.1708V0.277859ZM48.2931 0.277859C47.2069 0.277859 46.6314 0.859368 46.2091 1.87554L39.61 17.7135H44.3336L45.2475 15.0738H51.0022L51.5579 17.7135H55.7258L52.0897 0.277859H48.2931V0.277859ZM48.9074 4.98842L50.3075 11.5311H46.5565L48.9074 4.98842V4.98842Z" fill="#25252E"/>
</svg>
