<svg width="17" height="17" viewBox="0 0 17 17" fill="none" xmlns="http://www.w3.org/2000/svg">
<path d="M8.8905 4.6109C11.1053 4.6109 12.9335 6.43903 12.9335 8.65387C12.9335 10.9039 11.1053 12.6968 8.8905 12.6968C6.6405 12.6968 4.84753 10.9039 4.84753 8.65387C4.84753 6.43903 6.6405 4.6109 8.8905 4.6109ZM8.8905 11.2906C10.3319 11.2906 11.4921 10.1304 11.4921 8.65387C11.4921 7.21246 10.3319 6.05231 8.8905 6.05231C7.41394 6.05231 6.25378 7.21246 6.25378 8.65387C6.25378 10.1304 7.4491 11.2906 8.8905 11.2906ZM14.0233 4.47028C14.0233 4.99762 13.6014 5.41949 13.0741 5.41949C12.5468 5.41949 12.1249 4.99762 12.1249 4.47028C12.1249 3.94293 12.5468 3.52106 13.0741 3.52106C13.6014 3.52106 14.0233 3.94293 14.0233 4.47028ZM16.6952 5.41949C16.7655 6.72028 16.7655 10.6226 16.6952 11.9234C16.6249 13.189 16.3436 14.2789 15.4296 15.2281C14.5155 16.1422 13.3905 16.4234 12.1249 16.4937C10.8241 16.564 6.92175 16.564 5.62097 16.4937C4.35535 16.4234 3.2655 16.1422 2.31628 15.2281C1.40222 14.2789 1.12097 13.189 1.05066 11.9234C0.980347 10.6226 0.980347 6.72028 1.05066 5.41949C1.12097 4.15387 1.40222 3.02887 2.31628 2.11481C3.2655 1.20074 4.35535 0.919495 5.62097 0.849182C6.92175 0.77887 10.8241 0.77887 12.1249 0.849182C13.3905 0.919495 14.5155 1.20074 15.4296 2.11481C16.3436 3.02887 16.6249 4.15387 16.6952 5.41949ZM15.0077 13.2945C15.4296 12.275 15.3241 9.81403 15.3241 8.65387C15.3241 7.52887 15.4296 5.06793 15.0077 4.01324C14.7264 3.34528 14.1991 2.78278 13.5311 2.53668C12.4764 2.11481 10.0155 2.22028 8.8905 2.22028C7.73035 2.22028 5.26941 2.11481 4.24988 2.53668C3.54675 2.81793 3.01941 3.34528 2.73816 4.01324C2.31628 5.06793 2.42175 7.52887 2.42175 8.65387C2.42175 9.81403 2.31628 12.275 2.73816 13.2945C3.01941 13.9976 3.54675 14.525 4.24988 14.8062C5.26941 15.2281 7.73035 15.1226 8.8905 15.1226C10.0155 15.1226 12.4764 15.2281 13.5311 14.8062C14.1991 14.525 14.7616 13.9976 15.0077 13.2945Z" fill="#25252E"/>
</svg>
