<svg width="19" height="15" viewBox="0 0 19 15" fill="none" xmlns="http://www.w3.org/2000/svg">
<path d="M17.0272 3.99762C17.0272 4.1734 17.0272 4.31403 17.0272 4.48981C17.0272 9.37653 13.3358 14.9664 6.55066 14.9664C4.44128 14.9664 2.50769 14.3687 0.890503 13.314C1.17175 13.3492 1.453 13.3843 1.76941 13.3843C3.49207 13.3843 5.0741 12.7867 6.33972 11.8023C4.72253 11.7672 3.35144 10.7125 2.89441 9.2359C3.1405 9.27106 3.35144 9.30621 3.59753 9.30621C3.91394 9.30621 4.2655 9.2359 4.54675 9.16559C2.85925 8.81403 1.59363 7.33746 1.59363 5.54449V5.50934C2.08582 5.79059 2.68347 5.93121 3.28113 5.96637C2.2616 5.2984 1.62878 4.1734 1.62878 2.90778C1.62878 2.20465 1.80457 1.57184 2.12097 1.04449C3.9491 3.25934 6.69128 4.7359 9.74988 4.91168C9.67957 4.63043 9.64441 4.34918 9.64441 4.06793C9.64441 2.02887 11.2968 0.376526 13.3358 0.376526C14.3905 0.376526 15.3397 0.798401 16.0428 1.53668C16.8514 1.3609 17.66 1.04449 18.3632 0.62262C18.0819 1.50153 17.5194 2.20465 16.746 2.66168C17.4843 2.59137 18.2225 2.38043 18.8553 2.09918C18.3632 2.83746 17.7303 3.47028 17.0272 3.99762Z" fill="#25252E"/>
</svg>
