<svg width="20" height="15" viewBox="0 0 20 15" fill="none" xmlns="http://www.w3.org/2000/svg">
<path d="M19.5663 3.0484C19.9882 4.52496 19.9882 7.68903 19.9882 7.68903C19.9882 7.68903 19.9882 10.8179 19.5663 12.3297C19.3553 13.1734 18.6874 13.8062 17.8788 14.0172C16.3671 14.4039 10.3905 14.4039 10.3905 14.4039C10.3905 14.4039 4.37878 14.4039 2.86707 14.0172C2.05847 13.8062 1.3905 13.1734 1.17957 12.3297C0.75769 10.8179 0.75769 7.68903 0.75769 7.68903C0.75769 7.68903 0.75769 4.52496 1.17957 3.0484C1.3905 2.20465 2.05847 1.53668 2.86707 1.32574C4.37878 0.90387 10.3905 0.90387 10.3905 0.90387C10.3905 0.90387 16.3671 0.90387 17.8788 1.32574C18.6874 1.53668 19.3553 2.20465 19.5663 3.0484ZM8.42175 10.5367L13.4139 7.68903L8.42175 4.84137V10.5367Z" fill="#25252E"/>
</svg>
